<svg xmlns="http://www.w3.org/2000/svg" xmlns:xlink="http://www.w3.org/1999/xlink" width="32" height="2048" viewBox="0 0 32 2048"><defs><rect id="long" width="32" height="4" x="0"/><rect id="short" width="16" height="4" x="16"/></defs><g fill="#2895ff"><use y="52" xlink:href="#long"/><use y="88" xlink:href="#short"/><use y="124" xlink:href="#long"/><use y="160" xlink:href="#short"/><use y="196" xlink:href="#long"/><use y="232" xlink:href="#short"/><use y="268" xlink:href="#long"/><use y="304" xlink:href="#short"/><use y="340" xlink:href="#long"/><use y="376" xlink:href="#short"/><use y="412" xlink:href="#long"/><use y="448" xlink:href="#short"/><use y="484" xlink:href="#long"/><use y="520" xlink:href="#short"/><use y="556" xlink:href="#long"/><use y="592" xlink:href="#short"/><use y="628" xlink:href="#long"/><use y="664" xlink:href="#short"/><use y="700" xlink:href="#long"/><use y="736" xlink:href="#short"/><use y="772" xlink:href="#long"/><use y="808" xlink:href="#short"/><use y="844" xlink:href="#long"/><use y="880" xlink:href="#short"/><use y="916" xlink:href="#long"/><use y="952" xlink:href="#short"/><use y="988" xlink:href="#long"/><use y="1060" xlink:href="#long"/><use y="1096" xlink:href="#short"/><use y="1132" xlink:href="#long"/><use y="1168" xlink:href="#short"/><use y="1204" xlink:href="#long"/><use y="1240" xlink:href="#short"/><use y="1276" xlink:href="#long"/><use y="1312" xlink:href="#short"/><use y="1348" xlink:href="#long"/><use y="1384" xlink:href="#short"/><use y="1420" xlink:href="#long"/><use y="1456" xlink:href="#short"/><use y="1492" xlink:href="#long"/><use y="1528" xlink:href="#short"/><use y="1564" xlink:href="#long"/><use y="1600" xlink:href="#short"/><use y="1636" xlink:href="#long"/><use y="1672" xlink:href="#short"/><use y="1708" xlink:href="#long"/><use y="1744" xlink:href="#short"/><use y="1780" xlink:href="#long"/><use y="1816" xlink:href="#short"/><use y="1852" xlink:href="#long"/><use y="1888" xlink:href="#short"/><use y="1924" xlink:href="#long"/><use y="1960" xlink:href="#short"/><use y="1996" xlink:href="#long"/><use y="2032" xlink:href="#short"/></g><polygon fill="#2895ff" fill-opacity=".467" points="28 1005.5 7.5 1026 28 1046.5"/><path fill="#2895ff" fill-rule="evenodd" d="M32,996.5 L2.5,1026 L32,1055.5 Z M28,1005.5 L7.5,1026 L28,1046.5 Z"/></svg>